<svg xmlns="http://www.w3.org/2000/svg" viewBox="0 0 179.05 112.97"><defs><style>.cls-1{fill:#fff;}.cls-2{fill:blue;}</style></defs><g id="Layer_2" data-name="Layer 2"><g id="Layer_1-2" data-name="Layer 1"><path class="cls-1" d="M179.05,56.43c0,31.18-23.61,56.54-52.63,56.54H52.85A50.67,50.67,0,0,1,15.4,96.26,58.35,58.35,0,0,1,0,56.43C0,25.31,23.71,0,52.85,0h73.57c14,0,27.34,5.92,37.44,16.68A58.21,58.21,0,0,1,179.05,56.43Z"/><path class="cls-2" d="M160.21,20.1C151.45,10.76,139.57,5,126.42,5H52.85C26.45,5,5,28.06,5,56.43A53.68,53.68,0,0,0,19.06,92.87,45.82,45.82,0,0,0,52.85,108h73.57c26.3,0,47.63-23.06,47.63-51.54A53.47,53.47,0,0,0,160.21,20.1Zm-40,79.11H59.08A38.17,38.17,0,0,1,30.94,86.64,44.29,44.29,0,0,1,19.3,56.43c0-23.64,17.87-42.79,39.78-42.79H120.2a38.17,38.17,0,0,1,28,12.57,44.53,44.53,0,0,1,11.65,30.22C159.87,80.07,142.11,99.21,120.2,99.21Z"/><path class="cls-2" d="M41.64,75.44A19.79,19.79,0,0,1,34.93,72l3-7.09A19.28,19.28,0,0,0,43.66,68a20.12,20.12,0,0,0,6.68,1.16A10,10,0,0,0,55.84,68a3.66,3.66,0,0,0,1.78-3.16,3.12,3.12,0,0,0-1-2.41,7.81,7.81,0,0,0-2.7-1.54c-1.09-.39-2.57-.81-4.44-1.28a55.92,55.92,0,0,1-7.06-2.21,11.43,11.43,0,0,1-4.72-3.54,10,10,0,0,1-2-6.5,12,12,0,0,1,1.77-6.42,12.17,12.17,0,0,1,5.37-4.56,20.51,20.51,0,0,1,8.75-1.68,26.57,26.57,0,0,1,7.06.93,19.93,19.93,0,0,1,6,2.67L62,45.44a19.9,19.9,0,0,0-10.45-3.2,9.27,9.27,0,0,0-5.42,1.28,4,4,0,0,0-1.75,3.37,3.31,3.31,0,0,0,2,3.11,30.25,30.25,0,0,0,6.17,2,59.42,59.42,0,0,1,7.06,2.21,11.82,11.82,0,0,1,4.72,3.49,9.79,9.79,0,0,1,2,6.44,11.74,11.74,0,0,1-1.8,6.36,12.32,12.32,0,0,1-5.42,4.56,20.71,20.71,0,0,1-8.78,1.69A28.83,28.83,0,0,1,41.64,75.44Z"/><path class="cls-2" d="M106.86,35.39V76.05H98.14V59.38H81V76.05H72.27V35.39H81v16H98.14v-16Z"/><path class="cls-2" d="M119.55,75.44a19.74,19.74,0,0,1-6.7-3.4l3-7.09A19.46,19.46,0,0,0,121.58,68a20,20,0,0,0,6.68,1.16A9.94,9.94,0,0,0,133.75,68a3.63,3.63,0,0,0,1.78-3.16,3.12,3.12,0,0,0-1.05-2.41,7.85,7.85,0,0,0-2.69-1.54c-1.1-.39-2.58-.81-4.45-1.28a56.46,56.46,0,0,1-7.06-2.21,11.41,11.41,0,0,1-4.71-3.54,10,10,0,0,1-2-6.5,11.94,11.94,0,0,1,1.78-6.42,12.09,12.09,0,0,1,5.36-4.56,20.55,20.55,0,0,1,8.76-1.68,26.63,26.63,0,0,1,7.06.93,19.87,19.87,0,0,1,6,2.67l-2.69,7.14a19.93,19.93,0,0,0-10.46-3.2A9.22,9.22,0,0,0,124,43.52a4,4,0,0,0-1.75,3.37,3.29,3.29,0,0,0,2,3.11,29.83,29.83,0,0,0,6.17,2,60.63,60.63,0,0,1,7.06,2.21,11.73,11.73,0,0,1,4.71,3.49,9.79,9.79,0,0,1,2,6.44,11.75,11.75,0,0,1-1.81,6.36A12.29,12.29,0,0,1,137,75.06a20.75,20.75,0,0,1-8.79,1.69A28.88,28.88,0,0,1,119.55,75.44Z"/></g></g></svg>