<svg width="697" height="234" viewBox="0 0 697 234" fill="none" xmlns="http://www.w3.org/2000/svg">
<path d="M352.825 34.327C332.903 13.1019 305.904 0 276.021 0H108.783C48.7559 0 0 52.4076 0 116.869C0 149.1 12.32 178.448 31.9797 199.673C51.6393 220.898 78.6386 234 108.783 234H276.021C335.787 234 384.281 181.592 384.281 116.869C384.281 84.6383 372.223 55.29 352.825 34.327ZM261.866 214.085H122.938C98.0361 214.085 75.493 203.342 58.9789 185.523C42.727 168.228 32.5039 143.597 32.5039 116.869C32.5039 63.1512 73.1339 19.6529 122.938 19.6529H261.866C286.769 19.6529 309.312 30.6585 325.564 48.215C341.816 65.7716 352.039 90.1411 352.039 116.869C352.039 170.587 311.671 214.085 261.866 214.085Z" fill="#0000FF"/>
<path d="M83.3568 160.105C77.0657 158.009 71.8231 155.389 68.1533 152.244L74.7065 136.26C78.3763 139.142 82.8325 141.501 87.813 143.335C92.7934 145.169 98.036 145.955 103.016 145.955C108.521 145.955 112.715 145.169 115.599 143.335C118.22 141.501 119.531 138.88 119.531 135.998C119.531 133.901 118.744 132.067 117.171 130.495C115.599 128.923 113.502 127.875 111.142 127.088C108.521 126.302 105.376 125.254 100.919 124.206C94.3662 122.372 89.1236 120.8 84.9296 118.965C80.7355 117.393 77.0657 114.511 74.1823 110.842C71.2989 107.436 69.7261 102.457 69.7261 96.168C69.7261 90.9272 71.0367 85.9485 73.658 81.4938C76.2793 77.0392 80.4734 73.6327 85.7159 71.0123C91.2206 68.3919 97.7739 67.0817 105.638 67.0817C111.142 67.0817 116.385 67.8678 121.628 69.178C126.87 70.4882 131.326 72.5845 135.258 75.2049L129.491 91.9753C121.628 87.2587 113.764 84.6383 105.638 84.6383C100.133 84.6383 95.939 85.6864 93.3177 87.5207C90.6964 89.355 89.3857 91.9753 89.3857 95.1198C89.3857 98.2643 90.9585 100.623 94.1041 102.195C97.2496 103.767 101.968 105.339 107.997 106.649C114.55 108.484 120.055 110.056 124.249 111.89C128.443 113.462 132.113 116.083 134.996 119.751C137.88 123.42 139.452 128.137 139.452 134.426C139.452 139.666 138.142 144.645 135.258 148.838C132.637 153.292 128.443 156.699 122.938 159.319C117.434 161.94 110.88 163.25 103.016 163.25C96.2011 162.988 89.6479 161.94 83.3568 160.105Z" fill="#0000FF"/>
<path d="M231.46 69.178V161.677H211.8V123.682H172.743V161.677H152.821V69.178H172.743V105.601H211.8V69.178H231.46Z" fill="#0000FF"/>
<path d="M260.294 160.105C254.003 158.009 249.022 155.389 245.09 152.244L251.906 136.26C255.575 139.142 260.032 141.501 265.012 143.335C269.993 145.169 275.235 145.955 280.216 145.955C285.72 145.955 289.914 145.169 292.798 143.335C295.419 141.501 296.73 139.142 296.73 136.26C296.73 134.163 295.943 132.329 294.37 130.757C292.798 129.185 290.701 127.875 288.342 127.088C285.72 126.302 282.575 125.254 278.119 124.206C271.565 122.372 266.323 120.8 262.129 118.965C257.935 117.393 254.265 114.773 251.381 111.104C248.498 107.436 246.925 102.457 246.925 96.168C246.925 90.9272 248.236 85.9485 250.857 81.4938C253.478 77.0392 257.672 73.6327 262.915 71.0123C268.42 68.3919 274.973 67.0817 282.837 67.0817C288.342 67.0817 293.584 67.8678 298.827 69.178C304.069 70.4882 308.525 72.5845 312.457 75.2049L306.691 91.9753C298.827 87.2587 290.963 84.6383 282.837 84.6383C277.332 84.6383 273.138 85.6864 270.517 87.5207C267.895 89.355 266.585 91.9753 266.585 95.1198C266.585 98.2643 268.158 100.623 271.303 102.195C274.449 103.767 279.167 105.339 285.196 106.649C291.749 108.222 296.992 110.056 301.186 111.628C305.38 113.2 309.05 115.821 311.933 119.489C314.817 123.158 316.389 127.875 316.389 134.163C316.389 139.404 315.079 144.383 312.195 148.576C309.574 153.03 305.38 156.437 299.875 159.057C294.37 161.677 287.817 162.988 279.953 162.988C273.4 162.988 266.847 161.94 260.294 160.105Z" fill="#0000FF"/>
<path d="M443.784 51.8835C440.638 51.0974 437.755 49.7872 435.92 48.477L439.852 39.5677C441.687 40.8779 444.046 41.9261 446.405 42.7122C449.026 43.4983 451.386 43.7603 454.007 43.7603C458.725 43.7603 461.084 42.7122 461.084 40.3539C461.084 39.0437 460.298 38.2576 458.987 37.7335C457.677 37.2094 455.58 36.4233 452.696 35.8992C449.551 35.1131 446.667 34.327 444.57 33.5409C442.473 32.7547 440.638 31.4446 439.065 29.6103C437.493 27.776 436.706 25.4177 436.706 22.5353C436.706 19.9149 437.493 17.5565 438.803 15.4602C440.114 13.3639 442.473 11.7917 445.094 10.4815C447.716 9.17132 451.385 8.64725 455.58 8.64725C458.463 8.64725 461.084 8.90929 463.968 9.6954C466.851 10.4815 469.21 11.2676 471.307 12.5778L467.637 21.4871C463.443 19.3908 459.511 18.0806 455.842 18.0806C453.483 18.0806 451.648 18.3427 450.599 19.1288C449.551 19.9149 449.026 20.701 449.026 22.0112C449.026 23.0593 449.551 24.1075 450.861 24.6316C452.172 25.1556 454.269 25.6797 457.152 26.4658C460.298 27.2519 463.181 27.776 465.278 28.5621C467.375 29.3483 469.21 30.6584 470.783 32.4927C472.356 34.327 473.142 36.6853 473.142 39.5677C473.142 42.1881 472.356 44.5465 471.045 46.6428C469.734 48.7391 467.375 50.3113 464.492 51.6215C461.346 52.4076 457.939 53.1937 453.745 53.1937C450.337 53.1937 446.929 52.6696 443.784 51.8835Z" fill="#0000FF"/>
<path d="M531.072 22.0112C533.432 24.3695 534.742 28.0381 534.742 33.0168V51.8835H523.209V35.1131C523.209 32.7548 522.684 31.1825 521.898 29.8723C521.112 28.8242 519.801 28.3001 518.228 28.3001C516.393 28.3001 515.083 28.8242 514.034 30.1344C512.986 31.4446 512.461 33.2788 512.461 35.6372V52.1456H500.928V35.1131C500.928 30.6585 499.355 28.3001 495.947 28.3001C494.112 28.3001 492.802 28.8242 491.753 30.1344C490.705 31.4446 490.18 33.2788 490.18 35.6372V52.1456H478.647V18.8667H489.656V22.2732C490.967 20.963 492.277 19.9149 494.112 19.1288C495.685 18.3427 497.782 18.0806 499.617 18.0806C501.976 18.0806 504.073 18.6047 505.908 19.3908C507.743 20.1769 509.316 21.4871 510.364 23.3214C511.675 21.7492 513.248 20.439 515.345 19.3908C517.442 18.6047 519.539 18.0806 521.898 18.0806C525.306 18.3427 528.451 19.6529 531.072 22.0112Z" fill="#0000FF"/>
<path d="M568.819 22.2732C571.702 24.8936 573.275 28.5621 573.275 33.8029V52.1456H562.528V47.953C560.955 51.0974 557.547 52.9317 552.829 52.9317C550.208 52.9317 548.111 52.4076 546.276 51.6215C544.441 50.8354 542.868 49.5252 542.082 47.953C541.296 46.3807 539.985 44.5465 539.985 42.4502C539.985 39.3057 541.295 36.9474 543.655 35.1131C546.014 33.2788 549.684 32.4927 554.926 32.4927H561.479C561.217 29.0862 558.858 27.2519 554.402 27.2519C552.829 27.2519 551.256 27.514 549.421 28.0381C547.587 28.5621 546.276 29.3482 545.227 30.1344L541.295 22.2732C543.13 20.963 545.49 20.1769 548.111 19.3908C550.732 18.6047 553.353 18.3427 555.975 18.3427C561.742 18.3427 565.936 19.6528 568.819 22.2732ZM559.382 44.5465C560.431 43.7603 561.217 42.9742 561.479 41.664V38.7816H556.499C553.091 38.7816 551.519 39.8298 551.519 42.1881C551.519 43.2363 551.781 44.0224 552.567 44.5465C553.353 45.0705 554.402 45.5946 555.713 45.5946C557.023 45.3326 558.334 45.0705 559.382 44.5465Z" fill="#0000FF"/>
<path d="M596.08 19.6529C597.915 18.8667 600.274 18.6047 602.634 18.6047V29.0862C601.585 29.0862 600.799 28.8242 600.012 28.8242C597.391 28.8242 595.556 29.6103 594.245 30.9205C592.935 32.2307 592.148 34.327 592.148 37.2094V52.4076H580.615V18.8667H591.624V22.7973C592.673 21.4871 594.245 20.439 596.08 19.6529Z" fill="#0000FF"/>
<path d="M631.468 50.8354C630.419 51.3595 629.371 51.8835 627.798 52.1456C626.487 52.4076 624.914 52.6696 623.342 52.6696C618.886 52.6696 615.74 51.6215 613.381 49.5252C611.022 47.4289 609.973 44.2844 609.973 40.0918V28.8242H604.993V20.1769H609.973V11.5297H621.507V20.1769H629.108V28.8242H621.507V39.8298C621.507 40.8779 621.769 41.9261 622.555 42.7122C623.08 43.4983 624.128 43.7603 625.177 43.7603C626.487 43.7603 627.798 43.4983 628.846 42.7122L631.468 50.8354Z" fill="#0000FF"/>
<path d="M476.288 90.4031V133.115H464.23V116.345H447.716V133.115H435.658V90.4031H447.716V106.387H464.23V90.4031H476.288Z" fill="#0000FF"/>
<path d="M491.491 131.281C488.608 129.709 486.511 127.875 484.938 125.254C483.365 122.634 482.579 119.751 482.579 116.345C482.579 113.2 483.365 110.056 484.938 107.436C486.511 104.815 488.87 102.719 491.491 101.409C494.374 100.099 497.52 99.3124 501.19 99.3124C504.86 99.3124 508.005 100.099 510.888 101.409C513.772 102.981 515.869 104.815 517.442 107.436C519.014 110.056 519.801 112.938 519.801 116.345C519.801 119.751 519.014 122.634 517.442 125.254C515.869 127.875 513.51 129.971 510.888 131.281C508.005 132.853 504.86 133.377 501.19 133.377C497.52 133.639 494.374 132.853 491.491 131.281ZM505.908 122.372C507.219 121.062 507.743 118.965 507.743 116.607C507.743 114.249 507.219 112.152 505.908 110.842C504.597 109.532 503.025 108.746 500.928 108.746C498.831 108.746 497.258 109.532 495.947 110.842C494.637 112.152 494.112 114.249 494.112 116.607C494.112 118.965 494.637 121.062 495.947 122.372C497.258 123.682 498.831 124.468 500.928 124.468C503.025 124.468 504.597 123.682 505.908 122.372Z" fill="#0000FF"/>
<path d="M528.976 132.591C526.354 132.067 524.257 131.019 522.422 130.233L525.83 122.372C527.403 123.42 529.238 123.944 531.335 124.468C533.432 124.992 535.529 125.254 537.626 125.254C539.461 125.254 540.771 124.992 541.558 124.73C542.344 124.468 542.868 123.682 542.868 123.158C542.868 122.634 542.344 121.848 541.558 121.586C540.771 121.324 539.199 121.062 537.102 120.8C534.48 120.538 532.121 120.013 530.286 119.489C528.451 118.965 526.879 117.917 525.568 116.607C524.257 115.297 523.471 113.2 523.471 110.58C523.471 108.484 523.995 106.649 525.306 105.077C526.616 103.505 528.451 102.195 530.81 101.147C533.17 100.099 536.053 99.5745 539.461 99.5745C541.82 99.5745 544.179 99.8365 546.538 100.361C548.897 100.885 550.994 101.409 552.567 102.457L549.159 110.318C546.276 108.746 543.131 107.96 539.723 107.96C537.888 107.96 536.577 108.222 535.791 108.484C535.005 108.746 534.48 109.532 534.48 110.056C534.48 110.842 535.005 111.366 535.791 111.628C536.839 111.89 538.15 112.152 540.509 112.676C543.131 113.2 545.49 113.462 547.325 113.987C549.159 114.511 550.732 115.559 552.043 116.869C553.354 118.179 554.14 120.275 554.14 122.634C554.14 124.73 553.616 126.564 552.305 128.137C550.994 129.709 549.159 131.019 546.8 132.067C544.441 133.115 541.296 133.377 537.888 133.377C534.218 133.639 531.597 133.377 528.976 132.591Z" fill="#0000FF"/>
<path d="M587.43 101.409C589.789 102.981 591.886 104.815 593.197 107.436C594.508 110.056 595.294 112.938 595.294 116.345C595.294 119.751 594.508 122.634 593.197 125.254C591.624 127.875 589.789 129.709 587.43 131.281C585.071 132.591 582.188 133.377 579.304 133.377C575.372 133.377 572.489 132.329 570.13 129.971V144.645H558.334V100.099H569.343V103.505C571.44 100.885 574.848 99.5745 579.042 99.5745C582.188 99.3124 585.071 100.099 587.43 101.409ZM581.663 122.372C582.974 121.062 583.498 118.965 583.498 116.607C583.498 114.249 582.974 112.152 581.663 110.842C580.353 109.27 578.78 108.746 576.683 108.746C574.586 108.746 573.013 109.532 571.703 110.842C570.392 112.152 569.868 114.249 569.868 116.607C569.868 118.965 570.392 121.062 571.703 122.372C573.013 123.682 574.586 124.468 576.683 124.468C578.78 124.468 580.353 123.682 581.663 122.372Z" fill="#0000FF"/>
<path d="M601.585 94.5957C600.275 93.2855 599.75 91.9754 599.75 90.1411C599.75 88.3068 600.275 86.9966 601.585 85.6864C602.896 84.6383 604.469 83.8522 606.566 83.8522C608.663 83.8522 610.498 84.3762 611.808 85.4244C613.119 86.4726 613.643 88.0448 613.643 89.617C613.643 91.4513 613.119 93.0235 611.808 94.0717C610.498 95.3818 608.663 95.9059 606.566 95.9059C604.469 96.43 602.896 95.6439 601.585 94.5957ZM600.799 100.099H612.332V133.115H600.799V100.099Z" fill="#0000FF"/>
<path d="M642.739 131.543C641.691 132.067 640.642 132.591 639.069 132.853C637.759 133.115 636.186 133.377 634.613 133.377C630.419 133.377 627.012 132.329 624.652 130.233C622.293 128.137 621.245 124.992 621.245 120.8V109.794H616.526V101.147H621.245V92.4995H632.778V101.147H640.38V109.794H632.778V120.8C632.778 121.848 633.04 122.896 633.827 123.682C634.351 124.468 635.4 124.73 636.448 124.73C637.759 124.73 639.069 124.468 640.118 123.682L642.739 131.543Z" fill="#0000FF"/>
<path d="M673.933 103.243C676.816 105.863 678.389 109.532 678.389 114.773V133.115H667.642V128.661C665.807 132.067 662.399 133.639 657.681 133.639C655.059 133.639 652.962 133.115 651.128 132.329C649.293 131.543 647.72 130.233 646.933 128.661C646.147 127.088 645.623 125.516 645.623 123.42C645.623 120.275 646.933 117.917 649.293 116.083C651.652 114.249 655.322 113.462 660.302 113.462H666.855C666.593 110.056 664.234 108.222 659.778 108.222C658.205 108.222 656.632 108.484 655.059 109.008C653.487 109.532 652.176 110.318 650.865 111.104L646.933 103.243C648.768 101.933 650.865 101.147 653.487 100.361C656.108 99.5744 658.729 99.3124 661.351 99.3124C666.855 99.3124 671.049 100.623 673.933 103.243ZM664.496 125.254C665.545 124.468 666.331 123.682 666.593 122.372V119.489H661.613C658.205 119.489 656.632 120.537 656.632 122.896C656.632 123.944 656.894 124.73 657.681 125.254C658.467 125.778 659.516 126.04 660.826 126.04C662.137 126.302 663.448 126.04 664.496 125.254Z" fill="#0000FF"/>
<path d="M685.466 87.7827H697V133.115H685.466V87.7827Z" fill="#0000FF"/>
<path d="M443.784 212.513C440.638 211.727 437.755 210.417 435.92 209.106L439.852 200.197C441.687 201.507 444.046 202.555 446.405 203.342C449.026 204.128 451.386 204.39 454.007 204.39C458.725 204.39 461.084 203.342 461.084 200.983C461.084 199.673 460.298 198.887 458.987 198.363C457.677 197.839 455.58 197.053 452.696 196.529C449.551 195.742 446.667 194.956 444.57 194.17C442.473 193.384 440.638 192.074 439.065 190.24C437.493 188.405 436.706 186.047 436.706 183.165C436.706 180.544 437.493 178.186 438.803 176.09C440.114 173.993 442.473 172.421 445.094 171.111C447.716 169.801 451.385 169.277 455.58 169.277C458.463 169.277 461.084 169.539 463.968 170.325C466.851 171.111 469.21 171.897 471.307 173.207L467.637 182.116C463.443 180.02 459.511 178.71 455.842 178.71C453.483 178.71 451.648 178.972 450.599 179.758C449.551 180.544 449.026 181.33 449.026 182.641C449.026 183.689 449.551 184.737 450.861 185.261C452.172 185.785 454.269 186.309 457.152 187.095C460.298 187.881 463.181 188.405 465.278 189.192C467.375 189.978 469.21 191.288 470.783 193.122C472.356 194.956 473.142 197.315 473.142 200.197C473.142 202.817 472.356 205.176 471.045 207.272C469.734 209.368 467.375 210.941 464.492 212.251C461.609 213.561 458.201 214.085 454.007 214.085C450.337 213.823 446.929 213.299 443.784 212.513Z" fill="#0000FF"/>
<path d="M512.199 179.758L498.044 214.347C496.472 218.54 494.375 221.422 492.015 222.994C489.656 224.567 486.773 225.353 483.103 225.353C481.268 225.353 479.695 225.091 477.86 224.567C476.026 224.043 474.715 223.256 473.666 222.47L477.598 214.347C478.123 214.871 478.909 215.395 479.957 215.919C481.006 216.181 481.792 216.443 482.841 216.443C483.889 216.443 484.938 216.181 485.462 215.657C486.249 215.133 486.773 214.609 487.297 213.561L473.142 180.02H485.2L493.326 200.197L501.452 180.02H512.199V179.758Z" fill="#0000FF"/>
<path d="M518.49 212.513C515.869 211.989 513.51 210.941 511.937 210.155L515.345 202.293C516.918 203.341 518.753 203.866 520.85 204.39C522.947 204.914 525.044 205.176 527.141 205.176C528.976 205.176 530.286 204.914 531.073 204.652C531.859 204.39 532.383 203.604 532.383 203.079C532.383 202.555 531.859 201.769 530.81 201.507C529.762 201.245 528.451 200.983 526.354 200.721C523.733 200.459 521.374 199.935 519.539 199.411C517.704 198.887 516.131 197.839 514.821 196.529C513.51 195.218 512.724 193.122 512.724 190.502C512.724 188.405 513.248 186.571 514.559 184.737C515.869 182.903 517.704 181.854 520.063 180.806C522.422 179.758 525.306 179.234 528.713 179.234C531.073 179.234 533.432 179.496 535.791 180.02C538.15 180.544 540.247 181.068 541.82 182.116L538.412 189.978C535.529 188.405 532.383 187.619 528.713 187.619C526.879 187.619 525.568 187.881 524.782 188.143C523.995 188.405 523.471 189.191 523.471 189.716C523.471 190.502 523.995 191.026 524.782 191.288C525.83 191.55 527.141 191.812 529.5 192.336C532.121 192.86 534.48 193.122 536.315 193.646C538.15 194.17 539.723 195.218 541.033 196.529C542.344 197.839 543.131 199.935 543.131 202.555C543.131 204.652 542.606 206.486 541.296 208.058C539.985 209.63 538.15 210.941 535.791 211.989C533.432 213.037 530.286 213.299 526.879 213.299C523.995 213.561 521.374 213.299 518.49 212.513Z" fill="#0000FF"/>
<path d="M571.178 211.727C570.13 212.251 569.081 212.775 567.508 213.037C566.198 213.299 564.625 213.561 563.052 213.561C558.596 213.561 555.45 212.513 553.091 210.417C550.732 208.32 549.684 205.176 549.684 200.983V189.716H544.703V181.068H549.684V172.421H561.217V181.068H568.819V189.716H561.217V200.721C561.217 201.769 561.479 202.817 562.266 203.604C562.79 204.39 563.838 204.652 564.887 204.652C566.198 204.652 567.508 204.39 568.557 203.604L571.178 211.727Z" fill="#0000FF"/>
<path d="M608.4 199.411H584.285C584.809 201.245 585.857 202.555 587.168 203.342C588.479 204.128 590.314 204.652 592.411 204.652C593.983 204.652 595.294 204.39 596.605 203.866C597.915 203.342 598.964 202.817 600.012 201.769L606.041 208.058C602.896 211.727 598.177 213.561 591.886 213.561C587.954 213.561 584.547 212.775 581.663 211.465C578.78 209.893 576.421 208.058 574.848 205.438C573.275 202.817 572.489 199.935 572.489 196.529C572.489 193.122 573.275 190.24 574.848 187.619C576.421 184.999 578.518 182.903 581.401 181.592C584.285 180.02 587.43 179.496 590.838 179.496C594.245 179.496 597.129 180.282 599.75 181.592C602.371 182.903 604.469 184.999 606.041 187.619C607.614 190.24 608.4 193.384 608.4 196.791C608.663 196.529 608.663 197.577 608.4 199.411ZM586.382 188.929C585.071 189.978 584.285 191.288 584.022 193.122H597.653C597.391 191.288 596.605 189.978 595.294 188.929C593.983 187.881 592.673 187.357 590.838 187.357C589.265 187.619 587.692 187.881 586.382 188.929Z" fill="#0000FF"/>
<path d="M667.117 182.903C669.476 185.261 670.787 188.929 670.787 193.908V212.775H659.253V196.004C659.253 193.646 658.729 192.074 657.943 190.764C657.156 189.716 655.846 189.191 654.273 189.191C652.438 189.191 651.127 189.716 650.079 191.026C649.03 192.336 648.244 193.908 648.244 196.529V213.037H636.71V196.004C636.71 191.55 635.138 189.191 631.73 189.191C629.895 189.191 628.584 189.716 627.536 191.026C626.487 192.336 625.701 193.908 625.701 196.529V213.037H614.167V179.758H625.177V183.165C626.487 181.854 627.798 180.806 629.633 180.02C631.206 179.234 633.303 178.972 635.137 178.972C637.497 178.972 639.594 179.496 641.429 180.282C643.263 181.068 644.836 182.378 645.885 184.213C647.195 182.641 648.768 181.33 650.865 180.282C652.962 179.496 655.059 178.972 657.418 178.972C661.35 179.234 664.758 180.544 667.117 182.903Z" fill="#0000FF"/>
</svg>
